<?xml version="1.0" encoding="UTF-8" standalone="no"?>
<svg width="303px" height="514px" viewBox="0 0 303 514" version="1.1" xmlns="http://www.w3.org/2000/svg" xmlns:xlink="http://www.w3.org/1999/xlink" xmlns:sketch="http://www.bohemiancoding.com/sketch/ns">
    <!-- Generator: sketchtool 3.4.4 (395) - http://www.bohemiancoding.com/sketch -->
    <title>Satellite</title>
    <desc>Created with sketchtool.</desc>
    <defs>
        <path id="path-1" d="M0,0.891209677 L302.953578,0.891209677 L302.953578,514 L0,514 L0,0.891209677 Z"></path>
    </defs>
    <g id="Page-1" stroke="none" stroke-width="1" fill="none" fill-rule="evenodd" sketch:type="MSPage">
        <g id="503-" sketch:type="MSArtboardGroup" transform="translate(-135.000000, -223.000000)">
            <g id="Satellite" sketch:type="MSLayerGroup" transform="translate(135.000000, 223.000000)">
                <path d="M127.259363,198.842351 C129.141268,201.263125 128.704914,204.755423 126.281186,206.639399 L94.5969415,231.274093 C92.1752816,233.160141 88.6844517,232.722827 86.8004789,230.29998 L72.8061388,212.295472 C70.922166,209.872625 71.3605878,206.384472 73.7822476,204.498423 L105.468561,179.861657 C107.892288,177.979754 111.38105,178.417069 113.262955,180.837843 L127.259363,198.842351 Z" id="Fill-1" fill="#7D9199" sketch:type="MSShapeGroup"></path>
                <path d="M105.468354,179.861243 L73.7820408,204.500081 C71.360381,206.384057 70.9219592,209.87221 72.805932,212.295057 L79.8041361,221.298348 L120.260952,189.838646 L113.264816,180.839501 C111.380844,178.416654 107.892082,177.97934 105.468354,179.861243" id="Fill-3" fill="#647171" sketch:type="MSShapeGroup"></path>
                <path d="M103.303336,139.065394 L123.495554,165.041048 L118.912805,168.603814 L98.7226558,142.62816 L103.303336,139.065394 Z" id="Fill-5" fill="#4E687A" sketch:type="MSShapeGroup"></path>
                <path d="M127.328022,120.385847 L147.520239,146.359427 L142.939559,149.922194 L122.747341,123.948613 L127.328022,120.385847 Z" id="Fill-7" fill="#4E687A" sketch:type="MSShapeGroup"></path>
                <g id="Group-11">
                    <mask id="mask-2" sketch:name="Clip 10" fill="white">
                        <use xlink:href="#path-1"></use>
                    </mask>
                    <g id="Clip-10"></g>
                    <path d="M145.946471,111.579244 C147.633981,113.751309 147.243124,116.880906 145.071695,118.567986 L92.5872327,159.377099 C90.4137361,161.066252 87.2868789,160.672462 85.5973007,158.50247 L1.05014422,49.7375831 C-0.639434014,47.563446 -0.246508844,44.4359218 1.92491973,42.7467685 L54.4093823,1.93972823 C56.5828789,0.250575 59.7097361,0.644365323 61.3972463,2.81228468 L145.946471,111.579244 Z" id="Fill-9" fill="#3F5863" sketch:type="MSShapeGroup" mask="url(#mask-2)"></path>
                </g>
                <path d="M24.1084408,49.3249323 L12.568849,58.2992065 L3.59774694,46.7590774 L15.1373388,37.7848032 L24.1084408,49.3249323 Z" id="Fill-12" fill="#7D9199" sketch:type="MSShapeGroup"></path>
                <path d="M38.3583891,38.2476105 L26.8187973,47.2198121 L17.8476952,35.6796831 L29.3872871,26.7074815 L38.3583891,38.2476105 Z" id="Fill-14" fill="#7D9199" sketch:type="MSShapeGroup"></path>
                <path d="M52.6064762,27.1702887 L41.0668844,36.1404177 L32.0957823,24.6002887 L43.6333061,15.6301597 L52.6064762,27.1702887 Z" id="Fill-16" fill="#7D9199" sketch:type="MSShapeGroup"></path>
                <path d="M66.8543565,16.0908944 L55.3147646,25.063096 L46.3436626,13.5229669 L57.8832544,4.55076532 L66.8543565,16.0908944 Z" id="Fill-18" fill="#7D9199" sketch:type="MSShapeGroup"></path>
                <path d="M35.0261769,63.3716403 L23.4886531,72.3438419 L14.515483,60.8037129 L26.0550748,51.8315113 L35.0261769,63.3716403 Z" id="Fill-20" fill="#7D9199" sketch:type="MSShapeGroup"></path>
                <path d="M49.2761252,52.292246 L37.7365333,61.2644476 L28.7654313,49.7243185 L40.3050231,40.7521169 L49.2761252,52.292246 Z" id="Fill-22" fill="#7D9199" sketch:type="MSShapeGroup"></path>
                <path d="M63.5242122,41.2147169 L51.9846204,50.1869185 L43.0135184,38.6467895 L54.5531102,29.6745879 L63.5242122,41.2147169 Z" id="Fill-24" fill="#7D9199" sketch:type="MSShapeGroup"></path>
                <path d="M77.7720925,30.1373952 L66.2325007,39.1075242 L57.2613986,27.5673952 L68.8009905,18.5951935 L77.7720925,30.1373952 Z" id="Fill-26" fill="#7D9199" sketch:type="MSShapeGroup"></path>
                <path d="M45.9439129,77.4160685 L34.4063891,86.3882702 L25.433219,74.8481411 L36.9728109,65.8759395 L45.9439129,77.4160685 Z" id="Fill-28" fill="#7D9199" sketch:type="MSShapeGroup"></path>
                <path d="M60.1938612,66.3387468 L48.6542694,75.3109484 L39.6831673,63.7687468 L51.2227592,54.7986177 L60.1938612,66.3387468 Z" id="Fill-30" fill="#7D9199" sketch:type="MSShapeGroup"></path>
                <path d="M74.4419483,55.2593524 L62.9023565,64.231554 L53.9312544,52.691425 L65.4708463,43.7192234 L74.4419483,55.2593524 Z" id="Fill-32" fill="#7D9199" sketch:type="MSShapeGroup"></path>
                <path d="M88.6898286,44.1799581 L77.1502367,53.1542323 L68.1791347,41.6141032 L79.7187265,32.639829 L88.6898286,44.1799581 Z" id="Fill-34" fill="#7D9199" sketch:type="MSShapeGroup"></path>
                <path d="M56.863717,91.460704 L45.3241252,100.434978 L36.3530231,88.8948492 L47.8905469,79.920575 L56.863717,91.460704 Z" id="Fill-36" fill="#7D9199" sketch:type="MSShapeGroup"></path>
                <path d="M71.1115973,80.3833823 L59.5720054,89.3555839 L50.6009034,77.8154548 L62.1404952,68.8432532 L71.1115973,80.3833823 Z" id="Fill-38" fill="#7D9199" sketch:type="MSShapeGroup"></path>
                <path d="M85.3596844,69.3060605 L73.8221605,78.2761895 L64.8489905,66.7360605 L76.3885823,57.7659315 L85.3596844,69.3060605 Z" id="Fill-40" fill="#7D9199" sketch:type="MSShapeGroup"></path>
                <path d="M99.6075646,58.2266661 L88.0679728,67.1988677 L79.0968707,55.6587387 L90.6364626,46.6865371 L99.6075646,58.2266661 Z" id="Fill-42" fill="#7D9199" sketch:type="MSShapeGroup"></path>
                <path d="M67.7814531,105.507412 L56.2418612,114.479614 L47.2707592,102.939485 L58.810351,93.9672831 L67.7814531,105.507412 Z" id="Fill-44" fill="#7D9199" sketch:type="MSShapeGroup"></path>
                <path d="M82.0293333,94.4278105 L70.4897415,103.400012 L61.5186395,91.8598831 L73.0582313,82.8876815 L82.0293333,94.4278105 Z" id="Fill-46" fill="#7D9199" sketch:type="MSShapeGroup"></path>
                <path d="M96.2794884,83.3504887 L84.7398966,92.3226903 L75.7687946,80.7825613 L87.3063184,71.8103597 L96.2794884,83.3504887 Z" id="Fill-48" fill="#7D9199" sketch:type="MSShapeGroup"></path>
                <path d="M110.525301,72.2710944 L98.9857088,81.243296 L90.0146068,69.7031669 L101.554199,60.7309653 L110.525301,72.2710944 Z" id="Fill-50" fill="#7D9199" sketch:type="MSShapeGroup"></path>
                <path d="M78.6991891,119.55184 L67.1616653,128.524042 L58.1884952,116.983913 L69.7280871,108.011711 L78.6991891,119.55184 Z" id="Fill-52" fill="#7D9199" sketch:type="MSShapeGroup"></path>
                <path d="M92.9470694,108.474519 L81.4074776,117.44672 L72.4363755,105.906591 L83.9759673,96.9343895 L92.9470694,108.474519 Z" id="Fill-54" fill="#7D9199" sketch:type="MSShapeGroup"></path>
                <path d="M107.197018,97.3951242 L95.6574259,106.367326 L86.6863238,94.8271968 L98.2259156,85.8549952 L107.197018,97.3951242 Z" id="Fill-56" fill="#7D9199" sketch:type="MSShapeGroup"></path>
                <path d="M121.443037,86.3157298 L109.905513,95.290004 L100.932343,83.749875 L112.471935,74.7756008 L121.443037,86.3157298 Z" id="Fill-58" fill="#7D9199" sketch:type="MSShapeGroup"></path>
                <path d="M89.6169252,133.596476 L78.0794014,142.57075 L69.1062313,131.030621 L80.6458231,122.056347 L89.6169252,133.596476 Z" id="Fill-60" fill="#7D9199" sketch:type="MSShapeGroup"></path>
                <path d="M103.864805,122.519154 L92.3252136,131.491356 L83.3541116,119.951227 L94.8937034,110.979025 L103.864805,122.519154 Z" id="Fill-62" fill="#7D9199" sketch:type="MSShapeGroup"></path>
                <path d="M118.114754,111.441625 L106.575162,120.411754 L97.6040599,108.871625 L109.143652,99.8994234 L118.114754,111.441625 Z" id="Fill-64" fill="#7D9199" sketch:type="MSShapeGroup"></path>
                <path d="M132.362841,100.362231 L120.823249,109.334432 L111.850079,97.7943032 L123.389671,88.8221016 L132.362841,100.362231 Z" id="Fill-66" fill="#7D9199" sketch:type="MSShapeGroup"></path>
                <path d="M100.536522,147.642977 L88.9969306,156.615178 L80.0258286,145.075049 L91.5633524,136.102848 L100.536522,147.642977 Z" id="Fill-68" fill="#7D9199" sketch:type="MSShapeGroup"></path>
                <path d="M114.782541,136.563582 L103.24295,145.535784 L94.2718476,133.995655 L105.811439,125.023453 L114.782541,136.563582 Z" id="Fill-70" fill="#7D9199" sketch:type="MSShapeGroup"></path>
                <path d="M129.03249,125.48626 L117.492898,134.458462 L108.521796,122.918333 L120.061388,113.946131 L129.03249,125.48626 Z" id="Fill-72" fill="#7D9199" sketch:type="MSShapeGroup"></path>
                <path d="M143.280577,114.406866 L131.740985,123.379068 L122.769883,111.838939 L134.307407,102.866737 L143.280577,114.406866 Z" id="Fill-74" fill="#7D9199" sketch:type="MSShapeGroup"></path>
                <path d="M165.27963,218.794877 L145.08948,192.823369 L140.506732,196.384063 L160.69895,222.357644 L165.27963,218.794877 Z" id="Fill-76" fill="#4E687A" sketch:type="MSShapeGroup"></path>
                <path d="M189.306384,200.11533 L169.116234,174.141749 L164.533486,177.704515 L184.723635,203.678096 L189.306384,200.11533 Z" id="Fill-78" fill="#4E687A" sketch:type="MSShapeGroup"></path>
                <path d="M286.978068,293.006944 C288.665578,295.179008 288.274721,298.308605 286.101224,299.995685 L233.616762,340.804798 C231.445333,342.493952 228.318476,342.100161 226.628898,339.930169 L142.08381,231.165282 C140.394231,228.991145 140.787156,225.863621 142.956517,224.174468 L195.443048,183.367427 C197.612408,181.678274 200.743401,182.072065 202.430912,184.239984 L286.978068,293.006944 Z" id="Fill-80" fill="#3F5863" sketch:type="MSShapeGroup"></path>
                <path d="M165.142313,230.752631 L153.602721,239.726906 L144.631619,228.186777 L156.171211,219.212502 L165.142313,230.752631 Z" id="Fill-82" fill="#7D9199" sketch:type="MSShapeGroup"></path>
                <path d="M179.388332,219.67531 L167.850808,228.647511 L158.877638,217.107382 L170.41723,208.135181 L179.388332,219.67531 Z" id="Fill-84" fill="#7D9199" sketch:type="MSShapeGroup"></path>
                <path d="M193.63828,208.597988 L182.098688,217.568117 L173.127586,206.027988 L184.667178,197.057859 L193.63828,208.597988 Z" id="Fill-86" fill="#7D9199" sketch:type="MSShapeGroup"></path>
                <path d="M207.886161,197.518594 L196.346569,206.490795 L187.375467,194.950666 L198.915059,185.978465 L207.886161,197.518594 Z" id="Fill-88" fill="#7D9199" sketch:type="MSShapeGroup"></path>
                <path d="M176.060049,244.79934 L164.520457,253.771541 L155.549355,242.231412 L167.088947,233.25921 L176.060049,244.79934 Z" id="Fill-90" fill="#7D9199" sketch:type="MSShapeGroup"></path>
                <path d="M190.307929,233.719945 L178.768337,242.692147 L169.797235,231.152018 L181.334759,222.179816 L190.307929,233.719945 Z" id="Fill-92" fill="#7D9199" sketch:type="MSShapeGroup"></path>
                <path d="M204.556016,222.642623 L193.016424,231.614825 L184.045322,220.074696 L195.584914,211.102494 L204.556016,222.642623 Z" id="Fill-94" fill="#7D9199" sketch:type="MSShapeGroup"></path>
                <path d="M218.803897,211.563022 L207.264305,220.535223 L198.293203,208.995094 L209.832795,200.022893 L218.803897,211.563022 Z" id="Fill-96" fill="#7D9199" sketch:type="MSShapeGroup"></path>
                <path d="M186.977785,258.843768 L175.438193,267.815969 L166.467091,256.27584 L178.006683,247.303639 L186.977785,258.843768 Z" id="Fill-98" fill="#7D9199" sketch:type="MSShapeGroup"></path>
                <path d="M201.225665,247.766446 L189.686073,256.736575 L180.714971,245.196446 L192.252495,236.226317 L201.225665,247.766446 Z" id="Fill-100" fill="#7D9199" sketch:type="MSShapeGroup"></path>
                <path d="M215.473752,236.687052 L203.934161,245.659253 L194.963059,234.119124 L206.50265,225.146923 L215.473752,236.687052 Z" id="Fill-102" fill="#7D9199" sketch:type="MSShapeGroup"></path>
                <path d="M229.721633,225.607657 L218.184109,234.581931 L209.210939,223.041802 L220.750531,214.067528 L229.721633,225.607657 Z" id="Fill-104" fill="#7D9199" sketch:type="MSShapeGroup"></path>
                <path d="M197.895521,272.888403 L186.355929,281.862677 L177.384827,270.322548 L188.924419,261.348274 L197.895521,272.888403 Z" id="Fill-106" fill="#7D9199" sketch:type="MSShapeGroup"></path>
                <path d="M212.143401,261.811081 L200.60381,270.783283 L191.632707,259.243154 L203.172299,250.270952 L212.143401,261.811081 Z" id="Fill-108" fill="#7D9199" sketch:type="MSShapeGroup"></path>
                <path d="M226.391488,250.731687 L214.851897,259.703889 L205.880795,248.16376 L217.420386,239.193631 L226.391488,250.731687 Z" id="Fill-110" fill="#7D9199" sketch:type="MSShapeGroup"></path>
                <path d="M240.641437,239.654365 L229.101845,248.626567 L220.130743,237.086438 L231.668267,228.114236 L240.641437,239.654365 Z" id="Fill-112" fill="#7D9199" sketch:type="MSShapeGroup"></path>
                <path d="M208.813257,286.935111 L197.273665,295.907313 L188.302563,284.367184 L199.842155,275.394982 L208.813257,286.935111 Z" id="Fill-114" fill="#7D9199" sketch:type="MSShapeGroup"></path>
                <path d="M223.061137,275.855717 L211.523614,284.827919 L202.550444,273.28779 L214.090035,264.315588 L223.061137,275.855717 Z" id="Fill-116" fill="#7D9199" sketch:type="MSShapeGroup"></path>
                <path d="M237.309224,264.778188 L225.769633,273.75039 L216.798531,262.21026 L228.338122,253.238059 L237.309224,264.778188 Z" id="Fill-118" fill="#7D9199" sketch:type="MSShapeGroup"></path>
                <path d="M251.559173,253.698794 L240.019581,262.670995 L231.048479,251.130866 L242.588071,242.158665 L251.559173,253.698794 Z" id="Fill-120" fill="#7D9199" sketch:type="MSShapeGroup"></path>
                <path d="M219.730993,300.97954 L208.191401,309.951741 L199.220299,298.411612 L210.759891,289.43941 L219.730993,300.97954 Z" id="Fill-122" fill="#7D9199" sketch:type="MSShapeGroup"></path>
                <path d="M233.980941,289.902218 L222.44135,298.872347 L213.470248,287.332218 L225.007771,278.362089 L233.980941,289.902218 Z" id="Fill-124" fill="#7D9199" sketch:type="MSShapeGroup"></path>
                <path d="M248.226961,278.822823 L236.687369,287.795025 L227.716267,276.254896 L239.255859,267.282694 L248.226961,278.822823 Z" id="Fill-126" fill="#7D9199" sketch:type="MSShapeGroup"></path>
                <path d="M262.476909,267.743429 L250.937317,276.717703 L241.966215,265.177574 L253.505807,256.2033 L262.476909,267.743429 Z" id="Fill-128" fill="#7D9199" sketch:type="MSShapeGroup"></path>
                <path d="M230.648729,315.024175 L219.109137,323.998449 L210.138035,312.45832 L221.677627,303.484046 L230.648729,315.024175 Z" id="Fill-130" fill="#7D9199" sketch:type="MSShapeGroup"></path>
                <path d="M244.898678,303.946853 L233.359086,312.919055 L224.387984,301.378926 L235.925507,292.406724 L244.898678,303.946853 Z" id="Fill-132" fill="#7D9199" sketch:type="MSShapeGroup"></path>
                <path d="M259.144697,292.869324 L247.607173,301.839453 L238.634003,290.299324 L250.173595,281.327123 L259.144697,292.869324 Z" id="Fill-134" fill="#7D9199" sketch:type="MSShapeGroup"></path>
                <path d="M273.394645,281.78993 L261.855053,290.762131 L252.883951,279.222002 L264.423543,270.249801 L273.394645,281.78993 Z" id="Fill-136" fill="#7D9199" sketch:type="MSShapeGroup"></path>
                <path d="M241.566465,329.070676 L230.026873,338.042877 L221.055771,326.502748 L232.595363,317.530547 L241.566465,329.070676 Z" id="Fill-138" fill="#7D9199" sketch:type="MSShapeGroup"></path>
                <path d="M255.816414,317.991281 L244.276822,326.963483 L235.30572,315.423354 L246.845312,306.451152 L255.816414,317.991281 Z" id="Fill-140" fill="#7D9199" sketch:type="MSShapeGroup"></path>
                <path d="M270.062433,306.91396 L258.524909,315.886161 L249.551739,304.346032 L261.091331,295.373831 L270.062433,306.91396 Z" id="Fill-142" fill="#7D9199" sketch:type="MSShapeGroup"></path>
                <path d="M284.312381,295.834565 L272.772789,304.806767 L263.801687,293.266638 L275.341279,284.294436 L284.312381,295.834565 Z" id="Fill-144" fill="#7D9199" sketch:type="MSShapeGroup"></path>
                <path d="M242.045007,109.314535 L219.389769,126.929398 L205.662204,109.271011 L228.317442,91.6561484 L242.045007,109.314535 Z" id="Fill-146" fill="#7D9199" sketch:type="MSShapeGroup"></path>
                <path d="M228.598901,92.0173992 L205.943663,109.632262 L212.526193,118.100827 L235.181431,100.485964 L228.598901,92.0173992 Z" id="Fill-148" fill="#738385" sketch:type="MSShapeGroup"></path>
                <path d="M151.79299,160.709976 L137.871031,171.537137 L132.272882,164.336992 L146.198977,153.507758 L151.79299,160.709976 Z" id="Fill-150" fill="#3F5863" sketch:type="MSShapeGroup"></path>
                <path d="M161.862422,173.659667 L147.938395,184.486828 L142.342313,177.286683 L156.264272,166.459522 L161.862422,173.659667 Z" id="Fill-152" fill="#3F5863" sketch:type="MSShapeGroup"></path>
                <path d="M288.403973,60.9508661 L287.508517,59.7985113 L286.615129,58.648229 L254.763374,79.7160113 L257.45181,83.1710032 L260.138177,86.6280677 L288.403973,60.9508661 Z" id="Fill-154" fill="#4E687A" sketch:type="MSShapeGroup"></path>
                <path d="M293.11163,64.4160137 C290.024065,66.8181347 285.571603,66.2626831 283.172691,63.1724653 C280.769644,60.0843202 281.328011,55.6344895 284.417644,53.2323685 C287.505208,50.8302476 291.953535,51.3877718 294.35865,54.4759169 C296.757562,57.5640621 296.199195,62.0159653 293.11163,64.4160137" id="Fill-156" fill="#D78277" sketch:type="MSShapeGroup"></path>
                <path d="M235.842993,30.7162669 C212.004844,49.2492831 207.705415,83.6023073 226.234939,107.443202 C244.768599,131.279952 279.114395,135.584702 302.952544,117.047541 L235.842993,30.7162669 Z" id="Fill-158" fill="#4E687A" sketch:type="MSShapeGroup"></path>
                <path d="M295.102933,122.130545 C297.814117,120.683884 300.444648,118.998876 302.953165,117.048577 L235.843614,30.7173032 C233.335097,32.6676016 231.054063,34.8002871 228.981899,37.0718355 L295.102933,122.130545 Z" id="Fill-160" fill="#66B5CC" sketch:type="MSShapeGroup"></path>
                <path d="M228.398922,125.921502 L213.083113,137.830551 L193.544392,112.696365 L208.862269,100.787317 L228.398922,125.921502 Z" id="Fill-162" fill="#66B5CC" sketch:type="MSShapeGroup"></path>
                <path d="M228.398922,125.921502 L213.083113,137.830551 L193.544392,112.696365 L208.862269,100.787317 L228.398922,125.921502 Z" id="Fill-164" fill="#4E687A" sketch:type="MSShapeGroup"></path>
                <path d="M228.398922,125.921502 L213.083113,137.830551 L203.313752,125.266567 L218.63163,113.355446 L228.398922,125.921502 Z" id="Fill-166" fill="#000000" sketch:type="MSShapeGroup"></path>
                <path d="M228.398922,125.921502 L213.083113,137.830551 L203.313752,125.266567 L218.63163,113.355446 L228.398922,125.921502 Z" id="Fill-168" fill="#4E687A" sketch:type="MSShapeGroup"></path>
                <path d="M130.549181,206.893705 L102.002133,229.088971 L77.7276299,197.859326 L106.27261,175.66406 L130.549181,206.893705 Z" id="Fill-170" fill="#4E687A" sketch:type="MSShapeGroup"></path>
                <path d="M118.411722,191.278468 L89.8646748,213.475806 L102.001927,229.088556 L130.548974,206.89329 L118.411722,191.278468 Z" id="Fill-172" fill="#4E687A" sketch:type="MSShapeGroup"></path>
                <path d="M224.44258,133.430462 C226.326552,135.853309 225.888131,139.345607 223.466471,141.229583 L168.837464,183.702978 C166.415804,185.584881 162.924974,185.14964 161.043069,182.726793 L137.209056,152.067107 C135.325083,149.64426 135.763505,146.154035 138.185165,144.270059 L192.814171,101.794591 C195.235831,99.9126879 198.726661,100.350002 200.610634,102.772849 L224.44258,133.430462 Z" id="Fill-174" fill="#4E687A" sketch:type="MSShapeGroup"></path>
                <path d="M152.540169,189.337496 C154.424141,191.75827 153.98572,195.252641 151.56406,197.134544 L115.911271,224.85531 C113.489611,226.739286 109.998781,226.301972 108.114808,223.879125 L84.2828626,193.21944 C82.3988898,190.798665 82.8373116,187.30844 85.2589714,185.422391 L120.911761,157.701625 C123.33342,155.817649 126.82425,156.254964 128.710291,158.67781 L152.540169,189.337496 Z" id="Fill-176" fill="#7D9199" sketch:type="MSShapeGroup"></path>
                <path d="M214.920348,147.873862 L217.44541,145.911128 L186.791042,106.478209 L184.268049,108.440943 L214.920348,147.873862 Z" id="Fill-178" fill="#7D9199" sketch:type="MSShapeGroup"></path>
                <path d="M175.555037,178.480697 L178.07803,176.520035 L147.423663,137.085044 L144.902737,139.04985 L175.555037,178.480697 Z" id="Fill-180" fill="#7D9199" sketch:type="MSShapeGroup"></path>
                <path d="M147.520925,137.035194 L145,139 L147.520925,137.035194 Z" id="Fill-180-Copy" fill="#7D9199" sketch:type="MSShapeGroup"></path>
                <path d="M121.891385,220.207548 L124.414378,218.244815 L93.7600109,178.811895 L91.2390857,180.774629 L121.891385,220.207548 Z" id="Fill-182" fill="#4E687A" sketch:type="MSShapeGroup"></path>
                <path d="M295.102933,122.130545 C297.814117,120.683884 300.444648,118.998876 302.953165,117.048577 L235.843614,30.7173032 C233.335097,32.6676016 231.054063,34.8002871 228.981899,37.0718355 L295.102933,122.130545 Z" id="Fill-184" fill="#D78277" sketch:type="MSShapeGroup"></path>
                <path d="M212.525159,118.100619 L200.609186,102.771813 C198.727282,100.351039 195.236452,99.9137242 192.814792,101.795627 L138.185785,144.271095 C135.764125,146.152998 135.325703,149.645297 137.209676,152.068144 L149.127717,167.39695 L212.525159,118.100619 Z" id="Fill-186" fill="#3F525C" sketch:type="MSShapeGroup"></path>
                <path d="M140.624816,174.007653 L128.708844,158.678847 C126.824871,156.256 123.334041,155.818685 120.912381,157.702661 L85.2595918,185.423427 C82.837932,187.307403 82.3995102,190.799702 84.283483,193.220476 L96.1994558,208.549282 L140.624816,174.007653 Z" id="Fill-188" fill="#647171" sketch:type="MSShapeGroup"></path>
                <path d="M160.901203,144.655559 C163.473829,147.967543 162.876169,152.734478 159.565257,155.310696 C156.256414,157.882769 151.485475,157.285865 148.912849,153.975954 C146.340223,150.66397 146.937883,145.894962 150.248795,143.320817 C153.557638,140.748744 158.328577,141.345648 160.901203,144.655559" id="Fill-190" fill="#D78277" sketch:type="MSShapeGroup"></path>
                <path d="M173.200381,135.090185 C174.420517,136.659128 174.137197,138.920314 172.569633,140.138991 C171.004136,141.355596 168.743782,141.073725 167.525714,139.506854 C166.305578,137.93791 166.588898,135.676725 168.156463,134.458048 C169.721959,133.23937 171.982313,133.523314 173.200381,135.090185" id="Fill-192" fill="#7D9199" sketch:type="MSShapeGroup"></path>
                <path d="M185.503488,125.526676 C186.723624,127.095619 186.438237,129.354732 184.870672,130.57341 C183.303107,131.790015 181.044822,131.510216 179.824686,129.941273 C178.606618,128.372329 178.889937,126.113216 180.45957,124.892466 C182.025067,123.673789 184.283352,123.957732 185.503488,125.526676" id="Fill-194" fill="#7D9199" sketch:type="MSShapeGroup"></path>
                <path d="M117.27865,178.573963 C118.823467,180.561568 118.465698,183.425874 116.478324,184.972019 C114.488882,186.516092 111.624664,186.157535 110.081916,184.169931 C108.532963,182.182326 108.8928,179.318019 110.880174,177.771874 C112.867548,176.225729 115.731766,176.584285 117.27865,178.573963" id="Fill-196" fill="#D78277" sketch:type="MSShapeGroup"></path>
                <path d="M136.710868,201.113277 C137.289916,201.857334 137.155494,202.930931 136.411004,203.509181 L129.524473,208.864729 C128.782052,209.442979 127.706678,209.308261 127.129698,208.564205 L119.81095,199.148471 C119.23397,198.404415 119.366324,197.33289 120.110814,196.752568 L126.997344,191.399092 C127.741834,190.818769 128.81514,190.953487 129.39212,191.697544 L136.710868,201.113277 Z" id="Fill-198" fill="#4E687A" sketch:type="MSShapeGroup"></path>
                <path d="M223.523548,512.872723 C125.048229,515.979522 42.699385,438.657756 39.5952762,340.170796 C38.2448544,297.419675 52.0489361,257.70903 76.1600653,226.197514" id="Stroke-200" stroke="#808080" stroke-linecap="round" stroke-dasharray="3,8" sketch:type="MSShapeGroup"></path>
            </g>
        </g>
    </g>
</svg>